<?xml version="1.0" standalone="no"?>
<!DOCTYPE svg PUBLIC "-//W3C//DTD SVG 20010904//EN"
 "http://www.w3.org/TR/2001/REC-SVG-20010904/DTD/svg10.dtd">
<svg version="1.0" xmlns="http://www.w3.org/2000/svg"
 width="1024.000000pt" height="1024.000000pt" viewBox="0 0 1024.000000 1024.000000"
 preserveAspectRatio="xMidYMid meet">
<metadata>
Created by potrace 1.14, written by Peter Selinger 2001-2017
</metadata>
<g transform="translate(0.000000,1024.000000) scale(0.100000,-0.100000)"
fill="#000000" stroke="none">
<path d="M4738 10235 c-1 -1 -46 -6 -98 -9 -86 -6 -215 -19 -295 -31 -16 -2
-50 -6 -75 -10 -48 -6 -121 -18 -210 -34 -276 -48 -761 -196 -1008 -307 -29
-13 -80 -36 -115 -50 -65 -28 -274 -132 -367 -185 -471 -264 -864 -574 -1240
-975 -243 -261 -480 -583 -669 -912 -247 -431 -445 -945 -546 -1422 -9 -41
-18 -84 -21 -95 -4 -17 -12 -71 -30 -180 -2 -16 -7 -41 -9 -55 -3 -14 -7 -43
-10 -65 -2 -22 -7 -62 -11 -90 -4 -27 -8 -63 -9 -80 -1 -16 -6 -77 -11 -135
-17 -200 -9 -975 11 -1090 2 -14 7 -52 10 -85 8 -74 12 -103 35 -245 15 -98
20 -123 26 -150 3 -14 8 -34 10 -45 56 -290 176 -669 306 -970 293 -678 761
-1318 1307 -1785 35 -30 69 -60 75 -65 32 -31 214 -171 309 -238 482 -343
1040 -607 1589 -751 139 -37 328 -81 388 -90 19 -3 49 -8 65 -12 43 -8 60 -11
155 -23 300 -40 397 -45 815 -45 316 0 492 5 605 19 14 1 59 6 100 10 80 7 93
9 185 24 187 31 244 43 380 76 83 20 158 38 168 40 20 4 19 4 239 74 558 179
1114 479 1578 854 8 7 29 23 45 35 143 112 468 428 607 592 35 41 71 84 80 95
42 49 169 218 233 310 285 408 507 853 658 1320 43 133 104 351 114 405 2 14
10 50 18 80 14 54 29 138 40 215 4 22 8 47 10 55 6 19 22 137 31 214 3 33 7
67 9 76 27 138 27 997 1 1225 -2 17 -7 57 -11 90 -3 33 -8 71 -10 85 -2 14 -6
45 -10 70 -54 386 -207 924 -352 1240 -14 30 -34 76 -44 102 -22 56 -131 272
-172 343 -17 28 -41 70 -55 95 -43 78 -154 251 -239 372 -69 99 -214 290 -233
308 -3 3 -34 39 -70 80 -254 295 -580 591 -899 816 -317 223 -703 431 -1041
561 -63 24 -124 48 -135 53 -55 25 -472 150 -545 164 -14 3 -65 14 -115 25
-49 11 -103 22 -120 25 -16 3 -57 10 -90 15 -79 14 -272 39 -360 47 -38 3 -86
8 -105 11 -39 5 -866 13 -872 8z"/>
</g>
</svg>
